<svg xmlns="http://www.w3.org/2000/svg" width="1260" height="900" viewBox="0 0 1260 900">
  <defs>
    <marker id="arrow" markerWidth="10" markerHeight="10" refX="9" refY="3" orient="auto" markerUnits="strokeWidth">
      <path d="M0,0 L0,6 L9,3 z" fill="#555"/>
    </marker>
    <style>
      .tbl { fill: #fff; stroke: #333; stroke-width: 2; }
      .cell { fill: none; stroke: #555; stroke-width: 1.5; }
      .head { font-family: Arial, sans-serif; font-size: 17px; font-weight: 700; fill: #111; }
      .txt { font-family: Arial, sans-serif; font-size: 15px; fill: #111; }
      .note { font-family: Arial, sans-serif; font-size: 14px; fill: #111; }
      .center { text-anchor: middle; dominant-baseline: middle; }
      .rel { stroke: #666; stroke-width: 2; fill: none; marker-end: url(#arrow); }
    </style>
  </defs>

  <!-- users -->
  <g transform="translate(470 25)">
    <rect width="320" height="245" class="tbl"/>
    <rect y="0" width="320" height="30" class="cell"/>
    <text x="160" y="15" class="head center">users</text>
    <g class="txt">
      <rect y="30" width="85" height="27" class="cell"/><rect x="85" y="30" width="170" height="27" class="cell"/><rect x="255" y="30" width="65" height="27" class="cell"/>
      <text x="42" y="44" class="center">INTEGER</text><text x="170" y="44" class="center">id</text><text x="287" y="44" class="center">PK</text>
      <rect y="57" width="85" height="27" class="cell"/><rect x="85" y="57" width="170" height="27" class="cell"/><rect x="255" y="57" width="65" height="27" class="cell"/>
      <text x="42" y="71" class="center">TEXT</text><text x="170" y="71" class="center">name</text>
      <rect y="84" width="85" height="27" class="cell"/><rect x="85" y="84" width="170" height="27" class="cell"/><rect x="255" y="84" width="65" height="27" class="cell"/>
      <text x="42" y="98" class="center">TEXT</text><text x="170" y="98" class="center">email</text><text x="287" y="98" class="center">UNIQUE</text>
      <rect y="111" width="85" height="27" class="cell"/><rect x="85" y="111" width="170" height="27" class="cell"/><rect x="255" y="111" width="65" height="27" class="cell"/>
      <text x="42" y="125" class="center">TEXT</text><text x="170" y="125" class="center">phone</text>
      <rect y="138" width="85" height="27" class="cell"/><rect x="85" y="138" width="170" height="27" class="cell"/><rect x="255" y="138" width="65" height="27" class="cell"/>
      <text x="42" y="152" class="center">TEXT</text><text x="170" y="152" class="center">password</text>
      <rect y="165" width="85" height="27" class="cell"/><rect x="85" y="165" width="170" height="27" class="cell"/><rect x="255" y="165" width="65" height="27" class="cell"/>
      <text x="42" y="179" class="center">TEXT</text><text x="170" y="179" class="center">role</text>
      <rect y="192" width="85" height="27" class="cell"/><rect x="85" y="192" width="170" height="27" class="cell"/><rect x="255" y="192" width="65" height="27" class="cell"/>
      <text x="42" y="206" class="center">DATETIME</text><text x="170" y="206" class="center">created_at</text>
    </g>
    <text x="160" y="234" class="note center">Пользователи системы.</text>
  </g>

  <!-- children_profiles -->
  <g transform="translate(55 300)">
    <rect width="310" height="220" class="tbl"/>
    <rect y="0" width="310" height="30" class="cell"/>
    <text x="155" y="15" class="head center">children_profiles</text>
    <g class="txt">
      <rect y="30" width="80" height="27" class="cell"/><rect x="80" y="30" width="165" height="27" class="cell"/><rect x="245" y="30" width="65" height="27" class="cell"/>
      <text x="40" y="44" class="center">INTEGER</text><text x="162" y="44" class="center">id</text><text x="277" y="44" class="center">PK</text>
      <rect y="57" width="80" height="27" class="cell"/><rect x="80" y="57" width="165" height="27" class="cell"/><rect x="245" y="57" width="65" height="27" class="cell"/>
      <text x="40" y="71" class="center">INTEGER</text><text x="162" y="71" class="center">user_id</text><text x="277" y="71" class="center">FK</text>
      <rect y="84" width="80" height="27" class="cell"/><rect x="80" y="84" width="165" height="27" class="cell"/><rect x="245" y="84" width="65" height="27" class="cell"/>
      <text x="40" y="98" class="center">TEXT</text><text x="162" y="98" class="center">name</text>
      <rect y="111" width="80" height="27" class="cell"/><rect x="80" y="111" width="165" height="27" class="cell"/><rect x="245" y="111" width="65" height="27" class="cell"/>
      <text x="40" y="125" class="center">DATE</text><text x="162" y="125" class="center">birth_date</text>
      <rect y="138" width="80" height="27" class="cell"/><rect x="80" y="138" width="165" height="27" class="cell"/><rect x="245" y="138" width="65" height="27" class="cell"/>
      <text x="40" y="152" class="center">TEXT</text><text x="162" y="152" class="center">medical_card</text>
      <rect y="165" width="80" height="27" class="cell"/><rect x="80" y="165" width="165" height="27" class="cell"/><rect x="245" y="165" width="65" height="27" class="cell"/>
      <text x="40" y="179" class="center">DATETIME</text><text x="162" y="179" class="center">created_at</text>
    </g>
    <text x="155" y="207" class="note center">Профили детей пользователей.</text>
  </g>

  <!-- doctors -->
  <g transform="translate(50 565)">
    <rect width="315" height="275" class="tbl"/>
    <rect y="0" width="315" height="30" class="cell"/>
    <text x="157" y="15" class="head center">doctors</text>
    <g class="txt">
      <rect y="30" width="85" height="27" class="cell"/><rect x="85" y="30" width="165" height="27" class="cell"/><rect x="250" y="30" width="65" height="27" class="cell"/>
      <text x="42" y="44" class="center">INTEGER</text><text x="167" y="44" class="center">id</text><text x="282" y="44" class="center">PK</text>
      <rect y="57" width="85" height="27" class="cell"/><rect x="85" y="57" width="165" height="27" class="cell"/><rect x="250" y="57" width="65" height="27" class="cell"/>
      <text x="42" y="71" class="center">TEXT</text><text x="167" y="71" class="center">name</text>
      <rect y="84" width="85" height="27" class="cell"/><rect x="85" y="84" width="165" height="27" class="cell"/><rect x="250" y="84" width="65" height="27" class="cell"/>
      <text x="42" y="98" class="center">TEXT</text><text x="167" y="98" class="center">position</text>
      <rect y="111" width="85" height="27" class="cell"/><rect x="85" y="111" width="165" height="27" class="cell"/><rect x="250" y="111" width="65" height="27" class="cell"/>
      <text x="42" y="125" class="center">TEXT</text><text x="167" y="125" class="center">experience</text>
      <rect y="138" width="85" height="27" class="cell"/><rect x="85" y="138" width="165" height="27" class="cell"/><rect x="250" y="138" width="65" height="27" class="cell"/>
      <text x="42" y="152" class="center">TEXT</text><text x="167" y="152" class="center">description</text>
      <rect y="165" width="85" height="27" class="cell"/><rect x="85" y="165" width="165" height="27" class="cell"/><rect x="250" y="165" width="65" height="27" class="cell"/>
      <text x="42" y="179" class="center">TEXT</text><text x="167" y="179" class="center">photo</text>
      <rect y="192" width="85" height="27" class="cell"/><rect x="85" y="192" width="165" height="27" class="cell"/><rect x="250" y="192" width="65" height="27" class="cell"/>
      <text x="42" y="206" class="center">TEXT</text><text x="167" y="206" class="center">specialization</text>
      <rect y="219" width="85" height="27" class="cell"/><rect x="85" y="219" width="165" height="27" class="cell"/><rect x="250" y="219" width="65" height="27" class="cell"/>
      <text x="42" y="233" class="center">INTEGER</text><text x="167" y="233" class="center">is_active</text>
    </g>
    <text x="157" y="263" class="note center">Врачи клиники.</text>
  </g>

  <!-- appointments -->
  <g transform="translate(430 405)">
    <rect width="400" height="360" class="tbl"/>
    <rect y="0" width="400" height="30" class="cell"/>
    <text x="200" y="15" class="head center">appointments</text>
    <g class="txt">
      <rect y="30" width="90" height="27" class="cell"/><rect x="90" y="30" width="230" height="27" class="cell"/><rect x="320" y="30" width="80" height="27" class="cell"/>
      <text x="45" y="44" class="center">INTEGER</text><text x="205" y="44" class="center">id</text><text x="360" y="44" class="center">PK</text>
      <rect y="57" width="90" height="27" class="cell"/><rect x="90" y="57" width="230" height="27" class="cell"/><rect x="320" y="57" width="80" height="27" class="cell"/>
      <text x="45" y="71" class="center">INTEGER</text><text x="205" y="71" class="center">user_id</text><text x="360" y="71" class="center">FK</text>
      <rect y="84" width="90" height="27" class="cell"/><rect x="90" y="84" width="230" height="27" class="cell"/><rect x="320" y="84" width="80" height="27" class="cell"/>
      <text x="45" y="98" class="center">INTEGER</text><text x="205" y="98" class="center">doctor_id</text><text x="360" y="98" class="center">FK</text>
      <rect y="111" width="90" height="27" class="cell"/><rect x="90" y="111" width="230" height="27" class="cell"/><rect x="320" y="111" width="80" height="27" class="cell"/>
      <text x="45" y="125" class="center">INTEGER</text><text x="205" y="125" class="center">service_id</text><text x="360" y="125" class="center">FK</text>
      <rect y="138" width="90" height="27" class="cell"/><rect x="90" y="138" width="230" height="27" class="cell"/><rect x="320" y="138" width="80" height="27" class="cell"/>
      <text x="45" y="152" class="center">TEXT</text><text x="205" y="152" class="center">child_name</text>
      <rect y="165" width="90" height="27" class="cell"/><rect x="90" y="165" width="230" height="27" class="cell"/><rect x="320" y="165" width="80" height="27" class="cell"/>
      <text x="45" y="179" class="center">INTEGER</text><text x="205" y="179" class="center">child_age</text>
      <rect y="192" width="90" height="27" class="cell"/><rect x="90" y="192" width="230" height="27" class="cell"/><rect x="320" y="192" width="80" height="27" class="cell"/>
      <text x="45" y="206" class="center">DATE</text><text x="205" y="206" class="center">appointment_date</text>
      <rect y="219" width="90" height="27" class="cell"/><rect x="90" y="219" width="230" height="27" class="cell"/><rect x="320" y="219" width="80" height="27" class="cell"/>
      <text x="45" y="233" class="center">TEXT</text><text x="205" y="233" class="center">appointment_time</text>
      <rect y="246" width="90" height="27" class="cell"/><rect x="90" y="246" width="230" height="27" class="cell"/><rect x="320" y="246" width="80" height="27" class="cell"/>
      <text x="45" y="260" class="center">TEXT</text><text x="205" y="260" class="center">comment</text>
      <rect y="273" width="90" height="27" class="cell"/><rect x="90" y="273" width="230" height="27" class="cell"/><rect x="320" y="273" width="80" height="27" class="cell"/>
      <text x="45" y="287" class="center">TEXT</text><text x="205" y="287" class="center">status</text>
      <rect y="300" width="90" height="27" class="cell"/><rect x="90" y="300" width="230" height="27" class="cell"/><rect x="320" y="300" width="80" height="27" class="cell"/>
      <text x="45" y="314" class="center">DATETIME</text><text x="205" y="314" class="center">created_at</text>
    </g>
    <text x="200" y="347" class="note center">Заявки пользователей на прием.</text>
  </g>

  <!-- services -->
  <g transform="translate(900 50)">
    <rect width="315" height="275" class="tbl"/>
    <rect y="0" width="315" height="30" class="cell"/>
    <text x="157" y="15" class="head center">services</text>
    <g class="txt">
      <rect y="30" width="85" height="27" class="cell"/><rect x="85" y="30" width="165" height="27" class="cell"/><rect x="250" y="30" width="65" height="27" class="cell"/>
      <text x="42" y="44" class="center">INTEGER</text><text x="167" y="44" class="center">id</text><text x="282" y="44" class="center">PK</text>
      <rect y="57" width="85" height="27" class="cell"/><rect x="85" y="57" width="165" height="27" class="cell"/><rect x="250" y="57" width="65" height="27" class="cell"/>
      <text x="42" y="71" class="center">TEXT</text><text x="167" y="71" class="center">title</text>
      <rect y="84" width="85" height="27" class="cell"/><rect x="85" y="84" width="165" height="27" class="cell"/><rect x="250" y="84" width="65" height="27" class="cell"/>
      <text x="42" y="98" class="center">TEXT</text><text x="167" y="98" class="center">description</text>
      <rect y="111" width="85" height="27" class="cell"/><rect x="85" y="111" width="165" height="27" class="cell"/><rect x="250" y="111" width="65" height="27" class="cell"/>
      <text x="42" y="125" class="center">TEXT</text><text x="167" y="125" class="center">icon</text>
      <rect y="138" width="85" height="27" class="cell"/><rect x="85" y="138" width="165" height="27" class="cell"/><rect x="250" y="138" width="65" height="27" class="cell"/>
      <text x="42" y="152" class="center">TEXT</text><text x="167" y="152" class="center">category</text>
      <rect y="165" width="85" height="27" class="cell"/><rect x="85" y="165" width="165" height="27" class="cell"/><rect x="250" y="165" width="65" height="27" class="cell"/>
      <text x="42" y="179" class="center">INTEGER</text><text x="167" y="179" class="center">price</text>
      <rect y="192" width="85" height="27" class="cell"/><rect x="85" y="192" width="165" height="27" class="cell"/><rect x="250" y="192" width="65" height="27" class="cell"/>
      <text x="42" y="206" class="center">INTEGER</text><text x="167" y="206" class="center">old_price</text>
      <rect y="219" width="85" height="27" class="cell"/><rect x="85" y="219" width="165" height="27" class="cell"/><rect x="250" y="219" width="65" height="27" class="cell"/>
      <text x="42" y="233" class="center">INTEGER</text><text x="167" y="233" class="center">is_popular</text>
    </g>
    <text x="157" y="263" class="note center">Стоматологические услуги.</text>
  </g>

  <!-- promotions -->
  <g transform="translate(900 365)">
    <rect width="315" height="275" class="tbl"/>
    <rect y="0" width="315" height="30" class="cell"/>
    <text x="157" y="15" class="head center">promotions</text>
    <g class="txt">
      <rect y="30" width="85" height="27" class="cell"/><rect x="85" y="30" width="165" height="27" class="cell"/><rect x="250" y="30" width="65" height="27" class="cell"/>
      <text x="42" y="44" class="center">INTEGER</text><text x="167" y="44" class="center">id</text><text x="282" y="44" class="center">PK</text>
      <rect y="57" width="85" height="27" class="cell"/><rect x="85" y="57" width="165" height="27" class="cell"/><rect x="250" y="57" width="65" height="27" class="cell"/>
      <text x="42" y="71" class="center">TEXT</text><text x="167" y="71" class="center">title</text>
      <rect y="84" width="85" height="27" class="cell"/><rect x="85" y="84" width="165" height="27" class="cell"/><rect x="250" y="84" width="65" height="27" class="cell"/>
      <text x="42" y="98" class="center">TEXT</text><text x="167" y="98" class="center">description</text>
      <rect y="111" width="85" height="27" class="cell"/><rect x="85" y="111" width="165" height="27" class="cell"/><rect x="250" y="111" width="65" height="27" class="cell"/>
      <text x="42" y="125" class="center">INTEGER</text><text x="167" y="125" class="center">discount</text>
      <rect y="138" width="85" height="27" class="cell"/><rect x="85" y="138" width="165" height="27" class="cell"/><rect x="250" y="138" width="65" height="27" class="cell"/>
      <text x="42" y="152" class="center">INTEGER</text><text x="167" y="152" class="center">old_price</text>
      <rect y="165" width="85" height="27" class="cell"/><rect x="85" y="165" width="165" height="27" class="cell"/><rect x="250" y="165" width="65" height="27" class="cell"/>
      <text x="42" y="179" class="center">INTEGER</text><text x="167" y="179" class="center">new_price</text>
      <rect y="192" width="85" height="27" class="cell"/><rect x="85" y="192" width="165" height="27" class="cell"/><rect x="250" y="192" width="65" height="27" class="cell"/>
      <text x="42" y="206" class="center">TEXT</text><text x="167" y="206" class="center">badge</text>
      <rect y="219" width="85" height="27" class="cell"/><rect x="85" y="219" width="165" height="27" class="cell"/><rect x="250" y="219" width="65" height="27" class="cell"/>
      <text x="42" y="233" class="center">DATETIME</text><text x="167" y="233" class="center">end_date</text>
    </g>
    <text x="157" y="263" class="note center">Акции и специальные предложения.</text>
  </g>

  <!-- reviews -->
  <g transform="translate(900 680)">
    <rect width="315" height="190" class="tbl"/>
    <rect y="0" width="315" height="30" class="cell"/>
    <text x="157" y="15" class="head center">reviews</text>
    <g class="txt">
      <rect y="30" width="85" height="27" class="cell"/><rect x="85" y="30" width="165" height="27" class="cell"/><rect x="250" y="30" width="65" height="27" class="cell"/>
      <text x="42" y="44" class="center">INTEGER</text><text x="167" y="44" class="center">id</text><text x="282" y="44" class="center">PK</text>
      <rect y="57" width="85" height="27" class="cell"/><rect x="85" y="57" width="165" height="27" class="cell"/><rect x="250" y="57" width="65" height="27" class="cell"/>
      <text x="42" y="71" class="center">INTEGER</text><text x="167" y="71" class="center">user_id</text><text x="282" y="71" class="center">FK</text>
      <rect y="84" width="85" height="27" class="cell"/><rect x="85" y="84" width="165" height="27" class="cell"/><rect x="250" y="84" width="65" height="27" class="cell"/>
      <text x="42" y="98" class="center">INTEGER</text><text x="167" y="98" class="center">doctor_id</text><text x="282" y="98" class="center">FK</text>
      <rect y="111" width="85" height="27" class="cell"/><rect x="85" y="111" width="165" height="27" class="cell"/><rect x="250" y="111" width="65" height="27" class="cell"/>
      <text x="42" y="125" class="center">INTEGER</text><text x="167" y="125" class="center">rating</text>
      <rect y="138" width="85" height="27" class="cell"/><rect x="85" y="138" width="165" height="27" class="cell"/><rect x="250" y="138" width="65" height="27" class="cell"/>
      <text x="42" y="152" class="center">TEXT</text><text x="167" y="152" class="center">text</text>
    </g>
    <text x="157" y="178" class="note center">Отзывы пользователей.</text>
  </g>

  <!-- bonuses -->
  <g transform="translate(430 790)">
    <rect width="285" height="95" class="tbl"/>
    <rect y="0" width="285" height="30" class="cell"/>
    <text x="142" y="15" class="head center">bonuses</text>
    <g class="txt">
      <rect y="30" width="80" height="27" class="cell"/><rect x="80" y="30" width="145" height="27" class="cell"/><rect x="225" y="30" width="60" height="27" class="cell"/>
      <text x="40" y="44" class="center">INTEGER</text><text x="152" y="44" class="center">user_id</text><text x="255" y="44" class="center">FK</text>
      <rect y="57" width="80" height="27" class="cell"/><rect x="80" y="57" width="145" height="27" class="cell"/><rect x="225" y="57" width="60" height="27" class="cell"/>
      <text x="40" y="71" class="center">INTEGER</text><text x="152" y="71" class="center">amount</text>
    </g>
  </g>

  <!-- gallery -->
  <g transform="translate(55 75)">
    <rect width="310" height="165" class="tbl"/>
    <rect y="0" width="310" height="30" class="cell"/>
    <text x="155" y="15" class="head center">gallery</text>
    <g class="txt">
      <rect y="30" width="80" height="27" class="cell"/><rect x="80" y="30" width="165" height="27" class="cell"/><rect x="245" y="30" width="65" height="27" class="cell"/>
      <text x="40" y="44" class="center">INTEGER</text><text x="162" y="44" class="center">id</text><text x="277" y="44" class="center">PK</text>
      <rect y="57" width="80" height="27" class="cell"/><rect x="80" y="57" width="165" height="27" class="cell"/><rect x="245" y="57" width="65" height="27" class="cell"/>
      <text x="40" y="71" class="center">TEXT</text><text x="162" y="71" class="center">src</text>
      <rect y="84" width="80" height="27" class="cell"/><rect x="80" y="84" width="165" height="27" class="cell"/><rect x="245" y="84" width="65" height="27" class="cell"/>
      <text x="40" y="98" class="center">TEXT</text><text x="162" y="98" class="center">alt</text>
      <rect y="111" width="80" height="27" class="cell"/><rect x="80" y="111" width="165" height="27" class="cell"/><rect x="245" y="111" width="65" height="27" class="cell"/>
      <text x="40" y="125" class="center">TEXT</text><text x="162" y="125" class="center">category</text>
    </g>
    <text x="155" y="153" class="note center">Изображения слайдера.</text>
  </g>

  <!-- relationships -->
  <path d="M470 165 C380 210 350 270 365 360" class="rel"/>
  <path d="M630 270 L630 405" class="rel"/>
  <path d="M630 270 C600 345 575 380 560 405" class="rel"/>
  <path d="M790 180 C845 195 875 215 900 235" class="rel"/>
  <path d="M365 700 C390 650 410 600 430 520" class="rel"/>
  <path d="M900 190 C860 245 835 320 790 490" class="rel"/>
  <path d="M900 755 C860 745 840 735 830 710" class="rel"/>
  <path d="M365 705 C650 835 795 815 900 765" class="rel"/>
  <path d="M630 270 C650 530 610 700 575 790" class="rel"/>
</svg>
